<svg id="Group_12" data-name="Group 12" xmlns="http://www.w3.org/2000/svg" xmlns:xlink="http://www.w3.org/1999/xlink" width="19.975" height="20" viewBox="0 0 19.975 20">
  <defs>
    <clipPath id="clip-path">
      <rect id="Rectangle_18" data-name="Rectangle 18" width="19.975" height="20" fill="#ff4819"/>
    </clipPath>
  </defs>
  <g id="Group_12-2" data-name="Group 12" clip-path="url(#clip-path)">
    <path id="Path_16" data-name="Path 16" d="M10.575,19.4a1.992,1.992,0,0,1-2.85,0L.575,12.25a2.022,2.022,0,0,1,0-2.825L9.375.6a2.071,2.071,0,0,1,.65-.437,1.981,1.981,0,0,1,.8-.163h7.15a1.93,1.93,0,0,1,1.413.587A1.93,1.93,0,0,1,19.975,2V9.15a2,2,0,0,1-.162.8,2.091,2.091,0,0,1-.438.65ZM15.475,6a1.494,1.494,0,0,0,1.5-1.5,1.5,1.5,0,1,0-3,0,1.5,1.5,0,0,0,1.5,1.5M9.15,18l8.825-8.85V2h-7.15L2,10.85Z" fill="#ff4819"/>
  </g>
</svg>
