<svg id="Group_9" data-name="Group 9" xmlns="http://www.w3.org/2000/svg" xmlns:xlink="http://www.w3.org/1999/xlink" width="20" height="20" viewBox="0 0 20 20">
  <defs>
    <clipPath id="clip-path">
      <rect id="Rectangle_16" data-name="Rectangle 16" width="20" height="20" fill="#ff4819"/>
    </clipPath>
  </defs>
  <g id="Group_8" data-name="Group 8" clip-path="url(#clip-path)">
    <path id="Path_14" data-name="Path 14" d="M7.5,14.5l7-4.5-7-4.5ZM10,20a9.723,9.723,0,0,1-3.9-.788A9.978,9.978,0,0,1,.788,13.9,9.723,9.723,0,0,1,0,10,9.723,9.723,0,0,1,.788,6.1,9.978,9.978,0,0,1,6.1.788,9.723,9.723,0,0,1,10,0a9.723,9.723,0,0,1,3.9.788A9.978,9.978,0,0,1,19.212,6.1,9.723,9.723,0,0,1,20,10a9.723,9.723,0,0,1-.788,3.9A9.978,9.978,0,0,1,13.9,19.212,9.723,9.723,0,0,1,10,20m0-2a7.722,7.722,0,0,0,5.675-2.325A7.722,7.722,0,0,0,18,10a7.722,7.722,0,0,0-2.325-5.675A7.722,7.722,0,0,0,10,2,7.722,7.722,0,0,0,4.325,4.325,7.722,7.722,0,0,0,2,10a7.722,7.722,0,0,0,2.325,5.675A7.722,7.722,0,0,0,10,18" fill="#ff4819"/>
  </g>
</svg>
