<svg id="Group_11" data-name="Group 11" xmlns="http://www.w3.org/2000/svg" xmlns:xlink="http://www.w3.org/1999/xlink" width="20" height="20" viewBox="0 0 20 20">
  <defs>
    <clipPath id="clip-path">
      <rect id="Rectangle_17" data-name="Rectangle 17" width="20" height="20" fill="#ff4819"/>
    </clipPath>
  </defs>
  <g id="Group_10" data-name="Group 10" clip-path="url(#clip-path)">
    <path id="Path_15" data-name="Path 15" d="M13.5,9A1.5,1.5,0,0,0,15,7.5a1.5,1.5,0,1,0-2.562,1.062A1.443,1.443,0,0,0,13.5,9m-7,0A1.5,1.5,0,0,0,8,7.5,1.494,1.494,0,0,0,6.5,6,1.494,1.494,0,0,0,5,7.5,1.5,1.5,0,0,0,6.5,9M10,15.5a5.3,5.3,0,0,0,3.087-.962A5.491,5.491,0,0,0,15.1,12H4.9a5.491,5.491,0,0,0,2.013,2.538A5.3,5.3,0,0,0,10,15.5M10,20a9.723,9.723,0,0,1-3.9-.788A9.978,9.978,0,0,1,.788,13.9,9.723,9.723,0,0,1,0,10,9.723,9.723,0,0,1,.788,6.1,9.978,9.978,0,0,1,6.1.788,9.723,9.723,0,0,1,10,0a9.723,9.723,0,0,1,3.9.788A9.978,9.978,0,0,1,19.212,6.1,9.723,9.723,0,0,1,20,10a9.723,9.723,0,0,1-.788,3.9A9.978,9.978,0,0,1,13.9,19.212,9.723,9.723,0,0,1,10,20m0-2a7.722,7.722,0,0,0,5.675-2.325A7.722,7.722,0,0,0,18,10a7.722,7.722,0,0,0-2.325-5.675A7.722,7.722,0,0,0,10,2,7.722,7.722,0,0,0,4.325,4.325,7.722,7.722,0,0,0,2,10a7.722,7.722,0,0,0,2.325,5.675A7.722,7.722,0,0,0,10,18" fill="#ff4819"/>
  </g>
</svg>
