<svg xmlns="http://www.w3.org/2000/svg" xmlns:xlink="http://www.w3.org/1999/xlink" width="140" height="40" viewBox="0 0 140 40">
  <defs>
    <clipPath id="clip-path">
      <rect id="Rectangle_5" data-name="Rectangle 5" width="139.893" height="39.14" fill="none"/>
    </clipPath>
  </defs>
  <g id="Logo_Inauka" data-name="Logo Inauka" transform="translate(-460.452 -169.57)">
    <g id="Group_4" data-name="Group 4" transform="translate(460 170)">
      <rect id="Rectangle_6" data-name="Rectangle 6" width="140" height="40" transform="translate(0.452 -0.43)" fill="none"/>
      <g id="Group_3" data-name="Group 3" transform="translate(0.506)">
        <path id="Path_1" data-name="Path 1" d="M67.85,0,58.682,3.67,49.7.076l.015,4.192,8.968,3.593,9.183-3.685Z" transform="translate(-42.068 0)" fill="#ff6841"/>
        <path id="Path_2" data-name="Path 2" d="M21.682,39.888l7.97-3.319.046,6.654L29.774,55.3,16.553,60.829,3.992,55.585,3.931,47.3,3.9,43.015l-.046-6.27,7.539,3.143,5.144,2.149Zm7.97-7.6L16.569,37.739,3.839,32.432,0,30.828l.031,4.313L.153,53.982.184,58.3l3.839,1.6,7.386,3.078,5.144,2.149L21.7,62.977l8.123-3.383,3.808-1.587-.015-4.281L33.49,34.981,33.46,30.7Z" transform="translate(0 -25.986)" fill="#ff6841"/>
        <path id="Path_3" data-name="Path 3" d="M96.538,124.568l-4.33,2.6L88.4,129.451V119.7Z" transform="translate(-74.826 -100.36)" fill="#ff6841"/>
        <g id="Group_2" data-name="Group 2" transform="translate(0 0)">
          <g id="Group_1" data-name="Group 1" clip-path="url(#clip-path)">
            <path id="Path_4" data-name="Path 4" d="M295.934,76.145a1.731,1.731,0,1,0-.016-3.445,1.768,1.768,0,0,0-1.372.478,1.956,1.956,0,0,0,0,2.488,1.783,1.783,0,0,0,1.388.478" transform="translate(-247.193 -61.105)" fill="#333"/>
            <path id="Path_5" data-name="Path 5" d="M288.4,99.5v2.52h1.324v7.975h3.461V99.5H288.4Z" transform="translate(-242.402 -83.63)" fill="#333"/>
            <path id="Path_6" data-name="Path 6" d="M345.986,89.453H345.7L341.09,78.4H335.3V92.26h3.27V81.207h.271l4.625,11.053h5.822V78.4h-3.3Z" transform="translate(-281.821 -65.896)" fill="#333"/>
            <path id="Path_7" data-name="Path 7" d="M442.412,98.778a7.04,7.04,0,0,0-2.743-.478c-.383,0-.8,0-1.244.016s-.877.032-1.308.064c-.415.032-.782.048-1.085.08v2.887c.431-.032.909-.048,1.419-.08.526-.032,1.021-.048,1.483-.064s.829-.016,1.069-.016a1.385,1.385,0,0,1,1.085.351,1.5,1.5,0,0,1,.335,1.037h-1.659a8.611,8.611,0,0,0-2.52.335,3.621,3.621,0,0,0-1.723,1.069,2.849,2.849,0,0,0-.622,1.914,3.3,3.3,0,0,0,.478,1.8,3.154,3.154,0,0,0,1.34,1.148,4.54,4.54,0,0,0,1.962.4,3.826,3.826,0,0,0,1.85-.4,3.024,3.024,0,0,0,1.18-1.148,4.237,4.237,0,0,0,.287-.67v1.962h2.727v-6.364a4.285,4.285,0,0,0-.606-2.408,3.4,3.4,0,0,0-1.707-1.435m-1.244,7.432a1.371,1.371,0,0,1-.574.558,1.9,1.9,0,0,1-.813.16,1.532,1.532,0,0,1-1.085-.351,1.329,1.329,0,0,1,0-1.866,1.506,1.506,0,0,1,1.085-.351h1.659v.734a2.344,2.344,0,0,1-.271,1.116" transform="translate(-365.536 -82.622)" fill="#333"/>
            <path id="Path_8" data-name="Path 8" d="M516.355,105.725a1.6,1.6,0,0,1-.431,1.18,1.539,1.539,0,0,1-1.132.431,1.477,1.477,0,0,1-1.116-.431,1.6,1.6,0,0,1-.415-1.132V99.6H509.8v6.077a5.432,5.432,0,0,0,.973,3.573,3.4,3.4,0,0,0,2.759,1.164h.16a3.644,3.644,0,0,0,1.978-.51,3.131,3.131,0,0,0,1.212-1.563c.08-.223.159-.479.223-.734v2.472h2.728V99.6h-3.461v6.125Z" transform="translate(-428.49 -83.714)" fill="#333"/>
            <path id="Path_9" data-name="Path 9" d="M599.254,81.765h-3.62l-3.589,4.9V78.4H588.6V92.26h3.445v-4.9h.893l3.094,4.9h3.86l-3.956-6.013Z" transform="translate(-494.722 -65.896)" fill="#333"/>
            <path id="Path_10" data-name="Path 10" d="M668.612,98.778a7.039,7.039,0,0,0-2.743-.478c-.383,0-.8,0-1.244.016s-.877.032-1.308.064c-.415.032-.781.048-1.085.08v2.887c.431-.032.909-.048,1.42-.08.526-.032,1.021-.048,1.483-.064s.829-.016,1.069-.016a1.386,1.386,0,0,1,1.085.351,1.5,1.5,0,0,1,.335,1.037h-1.659a8.61,8.61,0,0,0-2.52.335,3.621,3.621,0,0,0-1.723,1.069,2.849,2.849,0,0,0-.622,1.914,3.3,3.3,0,0,0,.479,1.8,3.153,3.153,0,0,0,1.34,1.148,4.54,4.54,0,0,0,1.962.4,3.826,3.826,0,0,0,1.85-.4,3.026,3.026,0,0,0,1.18-1.148,4.248,4.248,0,0,0,.287-.67v1.962h2.727v-6.364a4.285,4.285,0,0,0-.606-2.408,3.54,3.54,0,0,0-1.707-1.435m-1.244,7.432a1.372,1.372,0,0,1-.574.558,1.9,1.9,0,0,1-.813.16,1.531,1.531,0,0,1-1.085-.351,1.328,1.328,0,0,1,0-1.866,1.506,1.506,0,0,1,1.085-.351h1.659v.734a2.79,2.79,0,0,1-.271,1.116" transform="translate(-555.658 -82.622)" fill="#333"/>
            <rect id="Rectangle_4" data-name="Rectangle 4" width="3.716" height="3.764" transform="translate(117.101 22.6)" fill="#333"/>
            <path id="Path_11" data-name="Path 11" d="M780.455,99.183a4.253,4.253,0,0,0-1.5-1.1,4.838,4.838,0,0,0-1.962-.383,4.4,4.4,0,0,0-2.217.558,4.025,4.025,0,0,0-1.531,1.643,5.508,5.508,0,0,0-.319.766V98H770.2v14.291h3.461v-5.008a3.341,3.341,0,0,0,1.212,1.053,4.654,4.654,0,0,0,2.153.478,4.784,4.784,0,0,0,2.026-.4,4.009,4.009,0,0,0,1.483-1.132,5.153,5.153,0,0,0,.909-1.707,7.063,7.063,0,0,0,.3-2.137v-.463a6.431,6.431,0,0,0-.335-2.121,5.1,5.1,0,0,0-.957-1.675M778,104.638a2.232,2.232,0,0,1-.813.973,2.083,2.083,0,0,1-1.212.351,2.557,2.557,0,0,1-1.116-.271,2.3,2.3,0,0,1-.909-.8,2.175,2.175,0,0,1-.367-1.26V103a2.472,2.472,0,0,1,.335-1.324,2.3,2.3,0,0,1,.877-.829,2.421,2.421,0,0,1,1.164-.287,2.159,2.159,0,0,1,1.212.335,2.428,2.428,0,0,1,.813.925,3.266,3.266,0,0,1,.287,1.42,3.114,3.114,0,0,1-.271,1.4" transform="translate(-647.357 -82.117)" fill="#333"/>
            <path id="Path_12" data-name="Path 12" d="M849.264,78.4H848.1v2.5h1.164V92.26h3.461V78.4Z" transform="translate(-712.833 -65.896)" fill="#333"/>
          </g>
        </g>
      </g>
    </g>
  </g>
</svg>
