<svg xmlns="http://www.w3.org/2000/svg" viewBox="0 0 184.67 187.33"><title>ok</title><path d="M125.52 87.31a28.45 28.45 0 11-12.62-18.15" fill="none" stroke="#139c00" stroke-linecap="round" stroke-linejoin="round" stroke-width="4" class="svMUUAna_0"/><path fill="none" stroke="#139c00" stroke-linecap="round" stroke-linejoin="round" stroke-width="8" d="M82.33 89.78l15.35 14.89 28.83-35.41" class="svMUUAna_1"/><path d="M94.77 46.18q1.44-.09 2.91-.09" fill="none" stroke="#139c00" stroke-linecap="round" stroke-linejoin="round" class="svMUUAna_2"/><path d="M87.31 47.23a46.8 46.8 0 015.19-.86" fill="none" stroke="#139c00" stroke-linecap="round" stroke-linejoin="round" class="svMUUAna_3"/><path d="M57.1 69.26a47.39 47.39 0 0112.13-13.62 47.85 47.85 0 014.93-3.27 46.54 46.54 0 017.57-3.52" fill="none" stroke="#139c00" stroke-linecap="round" stroke-linejoin="round" class="svMUUAna_4"/><path d="M51.15 85.78a47.08 47.08 0 013.69-12.21" fill="none" stroke="#139c00" stroke-linecap="round" stroke-linejoin="round" class="svMUUAna_5"/><path d="M51.77 103.81c-.19-.84-.36-1.69-.51-2.54" fill="none" stroke="#139c00" stroke-linecap="round" stroke-linejoin="round" class="svMUUAna_6"/><path d="M54.05 111a48.85 48.85 0 01-1.74-5.07" fill="none" stroke="#139c00" stroke-linecap="round" stroke-linejoin="round" class="svMUUAna_7"/><path d="M66.86 128.83c-.51-.44-1-.89-1.5-1.36A47 47 0 0155 113.12" fill="none" stroke="#139c00" stroke-linecap="round" stroke-linejoin="round" class="svMUUAna_8"/><path d="M78.76 136.36c-.69-.31-1.37-.62-2-1" fill="none" stroke="#139c00" stroke-linecap="round" stroke-linejoin="round" class="svMUUAna_9"/><path d="M84.91 138.56c-1.4-.39-2.76-.85-4.1-1.36" fill="none" stroke="#139c00" stroke-linecap="round" stroke-linejoin="round" class="svMUUAna_10"/><path d="M97.68 140.31a47.28 47.28 0 01-10.37-1.14" fill="none" stroke="#139c00" stroke-linecap="round" stroke-linejoin="round" class="svMUUAna_11"/><path d="M124.44 132a47 47 0 01-11.49 5.8" fill="none" stroke="#139c00" stroke-linecap="round" stroke-linejoin="round" class="svMUUAna_12"/><path d="M142.14 108.83a47 47 0 01-9.55 16 47.7 47.7 0 01-5 4.81" fill="none" stroke="#139c00" stroke-linecap="round" stroke-linejoin="round" class="svMUUAna_13"/><path d="M140.5 73.51a47.48 47.48 0 013.09 30.33" fill="none" stroke="#139c00" stroke-linecap="round" stroke-linejoin="round" class="svMUUAna_14"/><path d="M129.69 58.63a47.26 47.26 0 019.22 11.75" fill="none" stroke="#139c00" stroke-linecap="round" stroke-linejoin="round" class="svMUUAna_15"/><path d="M123.44 53.75q1.86 1.22 3.6 2.6" fill="none" stroke="#139c00" stroke-linecap="round" stroke-linejoin="round" class="svMUUAna_16"/><path d="M51.51 61.72A57.43 57.43 0 0156.87 55" fill="none" stroke="#139c00" stroke-linecap="round" stroke-linejoin="round" class="svMUUAna_17"/><path d="M49.23 121c-.92-1.59-1.75-3.22-2.51-4.9a56 56 0 011.66-49.25c.21-.4.43-.79.65-1.18" fill="none" stroke="#139c00" stroke-linecap="round" stroke-linejoin="round" class="svMUUAna_18"/><path d="M56.87 131.36a47.445 47.445 0 01-3-3.53" fill="none" stroke="#139c00" stroke-linecap="round" stroke-linejoin="round" class="svMUUAna_19"/><path d="M74.42 144a55.31 55.31 0 01-15.36-10.44" fill="none" stroke="#139c00" stroke-linecap="round" stroke-linejoin="round" class="svMUUAna_20"/><path d="M121 144a54.72 54.72 0 01-7.77 2.88 56.35 56.35 0 01-28.61.64" fill="none" stroke="#139c00" stroke-linecap="round" stroke-linejoin="round" class="svMUUAna_21"/><path d="M138.91 130.91a55.325 55.325 0 01-3.42 3.43 56.38 56.38 0 01-9.7 7.16" fill="none" stroke="#139c00" stroke-linecap="round" stroke-linejoin="round" class="svMUUAna_22"/><path d="M150.91 110.24a55.38 55.38 0 01-6.91 14.21" fill="none" stroke="#139c00" stroke-linecap="round" stroke-linejoin="round" class="svMUUAna_23"/><path d="M153.38 97.63a54.48 54.48 0 01-1 7" fill="none" stroke="#139c00" stroke-linecap="round" stroke-linejoin="round" class="svMUUAna_24"/><path d="M153.56 93.2q0 1.24-.06 2.46" fill="none" stroke="#139c00" stroke-linecap="round" stroke-linejoin="round" class="svMUUAna_25"/><path d="M150.27 74.27c.27.76.53 1.53.77 2.31" fill="none" stroke="#139c00" stroke-linecap="round" stroke-linejoin="round" class="svMUUAna_26"/><path d="M144 61.94a56.45 56.45 0 015.33 9.9" fill="none" stroke="#139c00" stroke-linecap="round" stroke-linejoin="round" class="svMUUAna_27"/><path d="M94.38 37.42q1.65-.09 3.3-.09a57.06 57.06 0 016.83.41 54.05 54.05 0 016.78 1.26 55 55 0 0112.55 4.82 55.9 55.9 0 0116.52 13.32" fill="none" stroke="#139c00" stroke-linecap="round" stroke-linejoin="round" class="svMUUAna_28"/><path d="M75.89 41.73a55.65 55.65 0 0111.42-3.44" fill="none" stroke="#139c00" stroke-linecap="round" stroke-linejoin="round" class="svMUUAna_29"/><path d="M66.15 47.07a55 55 0 016.51-3.84" fill="none" stroke="#139c00" stroke-linecap="round" stroke-linejoin="round" class="svMUUAna_30"/><path d="M83.57 57.44c.89-.35 1.79-.67 2.71-.95" fill="none" stroke="#139c00" stroke-linecap="round" stroke-linejoin="round" stroke-width=".5" class="svMUUAna_31"/><path d="M79.22 59.49c.58-.33 1.18-.63 1.78-.92" fill="none" stroke="#139c00" stroke-linecap="round" stroke-linejoin="round" stroke-width=".5" class="svMUUAna_32"/><path d="M60.86 82.17c0-.12.07-.25.11-.38" fill="none" stroke="#139c00" stroke-linecap="round" stroke-linejoin="round" stroke-width=".5" class="svMUUAna_33"/><path d="M59.92 86c.16-.82.34-1.65.56-2.48" fill="none" stroke="#139c00" stroke-linecap="round" stroke-linejoin="round" stroke-width=".5" class="svMUUAna_34"/><path d="M60.89 104.34a38.37 38.37 0 01-1.52-14.43" fill="none" stroke="#139c00" stroke-linecap="round" stroke-linejoin="round" stroke-width=".5" class="svMUUAna_35"/><path d="M62.87 109.51c-.35-.75-.68-1.52-1-2.29" fill="none" stroke="#139c00" stroke-linecap="round" stroke-linejoin="round" stroke-width=".5" class="svMUUAna_36"/><path d="M99.08 131.63a38.59 38.59 0 01-19.86-4.71" fill="none" stroke="#139c00" stroke-linecap="round" stroke-linejoin="round" stroke-width=".5" class="svMUUAna_37"/><path d="M91.72 55.21c.66-.1 1.32-.19 2-.25" fill="none" stroke="#139c00" stroke-linecap="round" stroke-linejoin="round" stroke-width=".5" class="svMUUAna_38"/><style data-made-with="vivus-instant">.svMUUAna_0{stroke-dasharray:157 159;stroke-dashoffset:158;animation:svMUUAna_draw 2000ms linear 0ms forwards;}.svMUUAna_1{stroke-dasharray:68 70;stroke-dashoffset:69;animation:svMUUAna_draw 2000ms linear 26ms forwards;}.svMUUAna_2{stroke-dasharray:3 5;stroke-dashoffset:4;animation:svMUUAna_draw 2000ms linear 52ms forwards;}.svMUUAna_3{stroke-dasharray:6 8;stroke-dashoffset:7;animation:svMUUAna_draw 2000ms linear 78ms forwards;}.svMUUAna_4{stroke-dasharray:33 35;stroke-dashoffset:34;animation:svMUUAna_draw 2000ms linear 105ms forwards;}.svMUUAna_5{stroke-dasharray:13 15;stroke-dashoffset:14;animation:svMUUAna_draw 2000ms linear 131ms forwards;}.svMUUAna_6{stroke-dasharray:3 5;stroke-dashoffset:4;animation:svMUUAna_draw 2000ms linear 157ms forwards;}.svMUUAna_7{stroke-dasharray:6 8;stroke-dashoffset:7;animation:svMUUAna_draw 2000ms linear 184ms forwards;}.svMUUAna_8{stroke-dasharray:20 22;stroke-dashoffset:21;animation:svMUUAna_draw 2000ms linear 210ms forwards;}.svMUUAna_9{stroke-dasharray:3 5;stroke-dashoffset:4;animation:svMUUAna_draw 2000ms linear 236ms forwards;}.svMUUAna_10{stroke-dasharray:5 7;stroke-dashoffset:6;animation:svMUUAna_draw 2000ms linear 263ms forwards;}.svMUUAna_11{stroke-dasharray:11 13;stroke-dashoffset:12;animation:svMUUAna_draw 2000ms linear 289ms forwards;}.svMUUAna_12{stroke-dasharray:13 15;stroke-dashoffset:14;animation:svMUUAna_draw 2000ms linear 315ms forwards;}.svMUUAna_13{stroke-dasharray:26 28;stroke-dashoffset:27;animation:svMUUAna_draw 2000ms linear 342ms forwards;}.svMUUAna_14{stroke-dasharray:32 34;stroke-dashoffset:33;animation:svMUUAna_draw 2000ms linear 368ms forwards;}.svMUUAna_15{stroke-dasharray:15 17;stroke-dashoffset:16;animation:svMUUAna_draw 2000ms linear 394ms forwards;}.svMUUAna_16{stroke-dasharray:5 7;stroke-dashoffset:6;animation:svMUUAna_draw 2000ms linear 421ms forwards;}.svMUUAna_17{stroke-dasharray:9 11;stroke-dashoffset:10;animation:svMUUAna_draw 2000ms linear 447ms forwards;}.svMUUAna_18{stroke-dasharray:58 60;stroke-dashoffset:59;animation:svMUUAna_draw 2000ms linear 473ms forwards;}.svMUUAna_19{stroke-dasharray:5 7;stroke-dashoffset:6;animation:svMUUAna_draw 2000ms linear 499ms forwards;}.svMUUAna_20{stroke-dasharray:19 21;stroke-dashoffset:20;animation:svMUUAna_draw 2000ms linear 526ms forwards;}.svMUUAna_21{stroke-dasharray:38 40;stroke-dashoffset:39;animation:svMUUAna_draw 2000ms linear 552ms forwards;}.svMUUAna_22{stroke-dasharray:17 19;stroke-dashoffset:18;animation:svMUUAna_draw 2000ms linear 578ms forwards;}.svMUUAna_23{stroke-dasharray:16 18;stroke-dashoffset:17;animation:svMUUAna_draw 2000ms linear 605ms forwards;}.svMUUAna_24{stroke-dasharray:8 10;stroke-dashoffset:9;animation:svMUUAna_draw 2000ms linear 631ms forwards;}.svMUUAna_25{stroke-dasharray:3 5;stroke-dashoffset:4;animation:svMUUAna_draw 2000ms linear 657ms forwards;}.svMUUAna_26{stroke-dasharray:3 5;stroke-dashoffset:4;animation:svMUUAna_draw 2000ms linear 684ms forwards;}.svMUUAna_27{stroke-dasharray:12 14;stroke-dashoffset:13;animation:svMUUAna_draw 2000ms linear 710ms forwards;}.svMUUAna_28{stroke-dasharray:52 54;stroke-dashoffset:53;animation:svMUUAna_draw 2000ms linear 736ms forwards;}.svMUUAna_29{stroke-dasharray:12 14;stroke-dashoffset:13;animation:svMUUAna_draw 2000ms linear 763ms forwards;}.svMUUAna_30{stroke-dasharray:8 10;stroke-dashoffset:9;animation:svMUUAna_draw 2000ms linear 789ms forwards;}.svMUUAna_31{stroke-dasharray:3 5;stroke-dashoffset:4;animation:svMUUAna_draw 2000ms linear 815ms forwards;}.svMUUAna_32{stroke-dasharray:3 5;stroke-dashoffset:4;animation:svMUUAna_draw 2000ms linear 842ms forwards;}.svMUUAna_33{stroke-dasharray:1 3;stroke-dashoffset:2;animation:svMUUAna_draw 2000ms linear 868ms forwards;}.svMUUAna_34{stroke-dasharray:3 5;stroke-dashoffset:4;animation:svMUUAna_draw 2000ms linear 894ms forwards;}.svMUUAna_35{stroke-dasharray:15 17;stroke-dashoffset:16;animation:svMUUAna_draw 2000ms linear 921ms forwards;}.svMUUAna_36{stroke-dasharray:3 5;stroke-dashoffset:4;animation:svMUUAna_draw 2000ms linear 947ms forwards;}.svMUUAna_37{stroke-dasharray:21 23;stroke-dashoffset:22;animation:svMUUAna_draw 2000ms linear 973ms forwards;}.svMUUAna_38{stroke-dasharray:3 5;stroke-dashoffset:4;animation:svMUUAna_draw 2000ms linear 999ms forwards;}@keyframes svMUUAna_draw{100%{stroke-dashoffset:0;}}@keyframes svMUUAna_fade{0%{stroke-opacity:1;}94.44444444444444%{stroke-opacity:1;}100%{stroke-opacity:0;}}</style></svg>